<?xml version="1.0" encoding="UTF-8" standalone="no"?>
<svg
   width="16"
   height="16"
   version="1.1"
   id="svg343"
   sodipodi:docname="Documentation.svg"
   inkscape:version="1.1.1 (3bf5ae0d25, 2021-09-20)"
   xmlns:inkscape="http://www.inkscape.org/namespaces/inkscape"
   xmlns:sodipodi="http://sodipodi.sourceforge.net/DTD/sodipodi-0.dtd"
   xmlns="http://www.w3.org/2000/svg"
   xmlns:svg="http://www.w3.org/2000/svg">
  <defs
     id="defs347" />
  <sodipodi:namedview
     id="namedview345"
     pagecolor="#ffffff"
     bordercolor="#666666"
     borderopacity="1.0"
     inkscape:pageshadow="2"
     inkscape:pageopacity="0.0"
     inkscape:pagecheckerboard="0"
     showgrid="false"
     inkscape:zoom="17.942835"
     inkscape:cx="-2.7866277"
     inkscape:cy="12.344761"
     inkscape:window-width="1920"
     inkscape:window-height="1001"
     inkscape:window-x="-9"
     inkscape:window-y="-9"
     inkscape:window-maximized="1"
     inkscape:current-layer="svg343" />
  <path
     style="fill:#e0e0e0;stroke-width:0.0385734;fill-opacity:1"
     d="M 2.1773868,15.55568 C 1.2119465,15.296905 0.50850483,14.271063 0.41204018,12.981233 0.39374651,12.736488 0.4003237,12.64025 0.44274943,12.532148 0.55553885,12.24478 0.47604854,12.256355 2.336092,12.256355 h 1.6895805 v -1.108324 c 0,-1.1894072 0.016691,-1.332769 0.1719509,-1.4760439 0.1025243,-0.094613 0.3292501,-0.09124 0.4206048,0.00632 0.138697,0.1480193 0.1467545,0.2262063 0.1467545,1.4240079 v 1.154095 h 1.8331489 c 2.0009189,0 1.984405,-0.0021 2.0575808,0.252496 0.019568,0.06812 0.044501,0.238133 0.055379,0.377812 0.073681,0.946379 0.6234334,1.667894 1.3312906,1.747255 0.746405,0.08368 1.42484,-0.630634 1.543257,-1.624871 0.02175,-0.182675 0.03437,-2.067372 0.03453,-5.1599404 2.71e-4,-5.3209602 -0.0085,-5.0673038 0.195005,-5.6646319 0.04992,-0.1465521 0.139934,-0.3513414 0.200041,-0.4550876 0.06011,-0.103746 0.109283,-0.2092579 0.109283,-0.2344713 0,-0.031362 -0.973337,-0.041435 -3.0832672,-0.031957 C 5.9905913,1.4766794 5.9559725,1.477817 5.7695715,1.5710334 5.5597213,1.6759658 5.3431909,1.8444976 5.271014,1.9590819 5.1242431,2.1920855 4.8545326,2.2260357 4.6899034,2.0322307 4.5955395,1.92114 4.5801561,1.8739522 4.5801561,1.69553 c 0,-0.1947584 0.01147,-0.2215534 0.1865573,-0.4362875 0.1971184,-0.2417402 0.5310509,-0.49305111 0.8383975,-0.63096394 0.1767895,-0.0793292 0.3682307,-0.0829314 4.4022701,-0.0829314 4.034038,0 4.22548,0.003795 4.402269,0.0829314 0.755294,0.33891605 1.309444,1.09922984 1.493186,2.04871184 0.02894,0.1496285 0.05265,0.4198591 0.05265,0.6005183 0,0.3086981 -0.0062,0.3362893 -0.102997,0.4585054 l -0.102993,0.1300428 -1.711682,0.012622 -1.71168,0.012622 v 4.6182342 c 0,4.4541699 -0.0025,4.6303829 -0.06639,4.9602209 -0.151491,0.780408 -0.546879,1.427399 -1.109794,1.815995 -0.480633,0.331799 -0.152181,0.309413 -4.6879138,0.319493 -3.2604516,0.0072 -4.1095009,-0.0026 -4.28465,-0.04951 z M 5.9243549,8.7817764 C 5.295939,8.4060344 4.7623763,8.0827176 4.7386558,8.0632943 4.708481,8.0385954 4.921102,7.7313328 5.4459781,7.0410752 L 6.196425,6.0541658 6.757696,7.6096854 c 0.3086992,0.8555396 0.5612709,1.599507 0.5612709,1.6532694 0,0.1295144 -0.061221,0.2042322 -0.1663434,0.203003 C 7.1054905,9.4654531 6.5527708,9.157525 5.9243549,8.7817764 Z M 7.8837404,7.7384174 C 7.7982397,7.6257668 7.7849735,7.5806317 7.8024125,7.4616872 7.8467907,7.1589798 7.819802,7.1644396 9.2633842,7.1660049 c 1.3964858,0.00163 1.3794748,-0.00108 1.4475488,0.23465 0.04216,0.1461133 0.0012,0.3044299 -0.104021,0.4014813 -0.06714,0.061959 -0.236905,0.070879 -1.3489091,0.070879 H 7.9858987 Z M 2.8158582,5.5484886 1.320691,3.5781687 2.0683095,2.5931442 2.8159322,1.6081251 4.319568,3.5892345 5.8232078,5.5703385 5.0843499,6.5445738 c -0.4063725,0.53583 -0.7466154,0.974235 -0.7560913,0.974235 -0.0095,0 -0.6900562,-0.8866461 -1.5124004,-1.9703202 z M 7.969463,6.1474148 C 7.8753416,6.0963379 7.7894381,5.9316627 7.7894381,5.8023131 c 0,-0.056569 0.037122,-0.1517575 0.082487,-0.2115331 l 0.082483,-0.1086748 h 1.3121288 c 1.2673191,0 1.3144221,0.00325 1.3793351,0.088552 0.102183,0.1346306 0.100555,0.3683438 -0.0037,0.5091762 -0.06293,0.085129 -0.114462,0.0889 -1.3331517,0.097609 -0.69723,0.00487 -1.300096,-0.00856 -1.3397055,-0.030007 z M 7.8719253,4.3550728 C 7.7609448,4.2088565 7.7664494,4.0444682 7.8876705,3.8847544 l 0.098228,-0.1294195 h 1.2721042 c 1.3803623,0 1.3850373,0.00108 1.4558943,0.2463278 0.03778,0.1309044 -0.01833,0.3590761 -0.102956,0.4187487 -0.03704,0.026107 -0.576892,0.043331 -1.3589979,0.043331 H 7.9544085 Z M 0.75817419,2.8306759 C 0.51751206,2.4881902 0.44945027,2.2367223 0.47068365,1.7685162 0.48836054,1.3783605 0.56672074,1.1399026 0.76155343,0.88320233 0.97791957,0.59813068 1.1711449,0.50103597 1.5220849,0.50103597 c 0.2696406,0 0.3211761,0.0136497 0.4751085,0.12609408 0.09496,0.0693515 0.2346189,0.20927963 0.3103559,0.31095122 L 2.4452432,1.122933 1.6954047,2.1101459 0.9455701,3.0973586 Z"
     id="path21" />
</svg>
